<?xml version="1.0" standalone="no"?>
<!DOCTYPE svg PUBLIC "-//W3C//DTD SVG 20010904//EN"
 "http://www.w3.org/TR/2001/REC-SVG-20010904/DTD/svg10.dtd">
<svg version="1.0" xmlns="http://www.w3.org/2000/svg"
 width="192.000000pt" height="192.000000pt" viewBox="0 0 192.000000 192.000000"
 preserveAspectRatio="xMidYMid meet">
<metadata>
Created by potrace 1.11, written by Peter Selinger 2001-2013
</metadata>
<g transform="translate(0.000000,192.000000) scale(0.100000,-0.100000)"
fill="#000000" stroke="none">
<path d="M910 1882 c-293 -38 -547 -209 -669 -450 -41 -81 -40 -90 9 -90 40
-1 40 -1 74 71 80 172 250 301 451 343 48 11 155 6 205 -9 190 -56 283 -225
239 -439 -27 -137 -96 -247 -214 -344 -82 -67 -191 -118 -277 -131 -22 -3 -47
-6 -56 -8 -9 -2 -25 -4 -34 -4 -16 -1 -18 -14 -18 -127 l0 -127 53 7 c113 14
135 19 224 51 248 88 436 254 532 468 164 366 3 728 -350 782 -52 8 -133 11
-169 7z"/>
<path d="M1750 1743 c-133 -118 -124 -107 -112 -144 40 -127 32 -352 -19 -501
-81 -241 -268 -455 -519 -595 -173 -96 -426 -162 -640 -166 l-40 -1 -1 -85
c-2 -135 0 -193 5 -199 15 -14 222 -7 358 13 117 18 283 74 397 136 330 178
571 483 661 837 54 216 48 489 -18 696 l-18 57 -54 -48z"/>
<path d="M694 1586 c-125 -39 -232 -170 -239 -294 -12 -186 165 -284 348 -194
224 111 267 405 71 487 -44 18 -123 19 -180 1z"/>
<path d="M167 1046 c-50 -18 -82 -49 -107 -101 -39 -81 -14 -178 63 -239 35
-28 46 -31 112 -31 67 0 77 3 112 31 145 116 86 334 -96 350 -26 2 -63 -2 -84
-10z"/>
</g>
</svg>
